<svg width="112" height="48" viewBox="0 0 112 48" fill="none" xmlns="http://www.w3.org/2000/svg">
<path d="M20.6685 36.2135H25.0959V31.3719H27.5485C31.2672 31.3719 33.7596 29.1821 33.7596 25.6705C33.7596 22.1986 31.3309 19.9053 27.7078 19.9053H20.6685V36.2135ZM25.0959 27.932V23.4408H26.6566C28.2094 23.4408 29.141 24.269 29.141 25.6705C29.141 27.064 28.2094 27.932 26.6566 27.932H25.0959Z" fill="#1D293F"/>
<path d="M38.4956 36.4045C40.0882 36.4045 41.2906 35.863 42.0312 34.4935H42.1267V36.2135H46.2356V27.8363C46.2356 25.5749 44.0936 23.823 40.5978 23.823C36.9428 23.823 35.1432 25.7342 34.9918 27.9638H39.0371C39.1407 27.2073 39.698 26.8489 40.5342 26.8489C41.2986 26.8489 41.8401 27.1994 41.8401 27.8363V27.8682C41.8401 28.577 41.0597 28.7998 39.0052 28.9511C36.481 29.1343 34.5142 30.1536 34.5142 32.8371C34.5142 35.2738 36.1545 36.4045 38.4956 36.4045ZM39.9289 33.6334C39.1804 33.6334 38.6549 33.2671 38.6549 32.5823C38.6549 31.9532 39.1008 31.4674 40.1201 31.3082C40.8208 31.1967 41.4101 31.0534 41.8719 30.8623V31.8815C41.8719 32.9964 40.9244 33.6334 39.9289 33.6334Z" fill="#1D293F"/>
<path d="M48.5225 40.8001H52.918V34.2067H52.9817C53.4913 35.4489 54.6698 36.3727 56.3898 36.3727C59.0017 36.3727 61.1995 34.3342 61.1995 30.0978C61.1995 25.6704 58.8425 23.823 56.4217 23.823C54.6062 23.823 53.4594 24.8741 52.9817 26.1163H52.8861V23.9823H48.5225V40.8001ZM52.8225 30.0978C52.8225 28.2823 53.5551 27.1994 54.7653 27.1994C55.9757 27.1994 56.6765 28.2823 56.6765 30.0978C56.6765 31.9134 55.9757 32.9964 54.7653 32.9964C53.5551 32.9964 52.8225 31.8815 52.8225 30.0978Z" fill="#1D293F"/>
<path d="M69.0885 36.4363C72.4807 36.4363 74.6626 34.8119 75.0766 32.2638H71.0632C70.8084 32.9566 70.0838 33.3467 69.184 33.3467C67.8781 33.3467 67.1137 32.4868 67.1137 31.3082V31.1171H75.0766V30.0978C75.0766 26.2039 72.6877 23.823 68.9929 23.823C65.2025 23.823 62.7817 26.3393 62.7817 30.1297C62.7817 34.0874 65.1707 36.4363 69.0885 36.4363ZM67.1137 28.6963C67.1375 27.6373 68.0135 26.9126 69.0885 26.9126C70.1793 26.9126 71.0076 27.6452 71.0314 28.6963H67.1137Z" fill="#1D293F"/>
<path d="M77.0571 36.2135H81.4527V29.843C81.4527 28.4415 82.4162 27.5179 83.7142 27.5179C84.1681 27.5179 84.9007 27.5894 85.3386 27.7408V23.9902C84.9883 23.8867 84.606 23.823 84.2238 23.823C82.9179 23.823 81.8987 24.5874 81.4527 26.3075H81.3253V23.9823H77.0571V36.2135Z" fill="#1D293F"/>
<path d="M86.9673 36.2134H91.3628V23.9822H86.9673V36.2134ZM89.1651 22.7081C90.3595 22.7081 91.331 21.8083 91.331 20.7015C91.331 19.5946 90.3595 18.6948 89.1651 18.6948C87.9707 18.6948 86.9992 19.5946 86.9992 20.7015C86.9992 21.8083 87.9707 22.7081 89.1651 22.7081Z" fill="#1D293F"/>
<path d="M97.1973 36.4045C98.7899 36.4045 99.9924 35.863 100.733 34.4935H100.828V36.2135H104.937V27.8363C104.937 25.5749 102.795 23.823 99.2995 23.823C95.6445 23.823 93.8449 25.7342 93.6936 27.9638H97.7388C97.8423 27.2073 98.3997 26.8489 99.2358 26.8489C100 26.8489 100.542 27.1994 100.542 27.8363V27.8682C100.542 28.577 99.7614 28.7998 97.7069 28.9511C95.1826 29.1343 93.2158 30.1536 93.2158 32.8371C93.2158 35.2738 94.8562 36.4045 97.1973 36.4045ZM98.6307 33.6334C97.8822 33.6334 97.3566 33.2671 97.3566 32.5823C97.3566 31.9532 97.8026 31.4674 98.8218 31.3082C99.5225 31.1967 100.112 31.0534 100.574 30.8623V31.8815C100.574 32.9964 99.626 33.6334 98.6307 33.6334Z" fill="#1D293F"/>
<path d="M111.62 19.9053H107.225V36.2135H111.62V19.9053Z" fill="#1D293F"/>
<path d="M0 17.5123C0 14.4028 1.29274 11.4332 3.56873 9.31454L5.84031 7.19995L17.1316 20.4034L0 30.8884V17.5123Z" fill="#FF6064"/>
<path d="M0.38916 32.442L6.61883 28.5586V35.9369L0.38916 32.442Z" fill="#C9484B"/>
</svg>
